<?xml version="1.0" standalone="no"?>
<!DOCTYPE svg PUBLIC "-//W3C//DTD SVG 20010904//EN"
 "http://www.w3.org/TR/2001/REC-SVG-20010904/DTD/svg10.dtd">
<svg version="1.0" xmlns="http://www.w3.org/2000/svg"
 width="512.000000pt" height="512.000000pt" viewBox="0 0 512.000000 512.000000"
 preserveAspectRatio="xMidYMid meet">
<metadata>
Created by potrace 1.11, written by Peter Selinger 2001-2013
</metadata>
<g transform="translate(0.000000,512.000000) scale(0.100000,-0.100000)"
fill="#000000" stroke="none">
<path d="M684 5105 c-140 -44 -249 -157 -280 -290 -4 -16 -8 -1024 -9 -2240
-2 -2328 -3 -2272 41 -2358 37 -72 103 -136 182 -174 l76 -38 1865 0 1866 0
57 27 c110 51 178 122 220 226 l22 57 2 2215 c2 2360 3 2284 -45 2378 -36 71
-98 130 -179 169 l-76 38 -1850 2 c-1483 1 -1859 -1 -1892 -12z m3646 -472 c0
-51 0 -986 0 -2078 0 -1092 0 -2025 0 -2073 l0 -88 -1770 0 -1770 0 0 255 c-1
331 -1 3510 0 3832 l0 245 1770 0 1770 0 0 -93z"/>
<path d="M1728 4127 c-33 -6 -58 -19 -84 -45 -115 -112 -70 -290 85 -332 23
-6 349 -9 858 -7 l821 2 44 30 c128 91 116 267 -25 342 -29 16 -99 17 -842 18
-445 0 -831 -4 -857 -8z"/>
<path d="M1334 2944 c-181 -46 -202 -287 -32 -364 42 -19 66 -19 778 -17 l735
2 39 24 c108 67 128 212 41 304 -58 61 -32 59 -809 61 -478 1 -724 -3 -752
-10z"/>
<path d="M3544 2954 c-5 -1 -25 -5 -45 -8 -54 -9 -123 -74 -139 -131 -26 -94
15 -190 100 -232 41 -20 58 -22 195 -20 131 2 154 5 180 22 110 73 132 206 51
302 -42 49 -91 64 -217 67 -64 1 -121 1 -125 0z"/>
<path d="M1350 2358 c-194 -33 -227 -289 -47 -368 44 -20 65 -20 767 -20 779
1 761 -1 818 53 80 74 82 207 5 278 -70 66 -27 62 -800 63 -386 1 -720 -2
-743 -6z"/>
<path d="M3547 2364 c-1 -1 -16 -4 -33 -7 -161 -25 -220 -235 -95 -340 50 -42
93 -50 247 -45 116 3 144 7 170 24 94 58 125 165 76 260 -42 83 -95 106 -250
108 -63 1 -114 0 -115 0z"/>
<path d="M1404 1769 c-68 -4 -100 -11 -125 -27 -128 -78 -125 -254 4 -336 16
-9 38 -19 50 -22 49 -10 1436 -5 1476 6 140 37 189 224 84 321 -66 62 -32 59
-746 62 -358 1 -693 -1 -743 -4z"/>
<path d="M3515 1765 c-29 -6 -64 -18 -78 -28 -140 -92 -98 -316 66 -353 29 -7
228 -5 273 2 136 21 201 172 127 293 -43 68 -93 89 -227 93 -60 2 -133 -2
-161 -7z"/>
</g>
</svg>
